<?xml version="1.0" encoding="UTF-8" ?>
<!DOCTYPE svg PUBLIC "-//W3C//DTD SVG 1.1//EN" "http://www.w3.org/Graphics/SVG/1.1/DTD/svg11.dtd">
<svg width="105pt" height="105pt" viewBox="0 0 105 105" version="1.1" xmlns="http://www.w3.org/2000/svg">
<path fill="#ffffff" d=" M 0.00 0.00 L 105.00 0.00 L 105.00 105.00 L 0.00 105.00 L 0.00 0.00 Z" />
<path fill="#003366" d=" M 49.24 3.10 C 53.73 0.66 59.76 4.74 58.94 9.84 C 58.62 14.49 52.96 17.34 49.01 14.96 C 44.38 12.74 44.56 5.18 49.24 3.10 Z" />
<path fill="#003366" d=" M 27.43 9.28 C 31.96 6.41 38.48 10.62 37.45 15.96 C 37.09 20.96 30.37 23.62 26.67 20.30 C 23.08 17.66 23.42 11.36 27.43 9.28 Z" />
<path fill="#003366" d=" M 70.35 9.27 C 74.15 6.99 79.93 9.40 80.25 14.02 C 81.41 19.08 75.38 23.57 70.84 21.12 C 66.03 19.19 65.75 11.62 70.35 9.27 Z" />
<path fill="#003366" d=" M 15.00 26.14 C 20.78 26.92 26.18 29.39 31.83 30.80 C 35.68 40.90 43.66 48.60 51.20 56.03 C 52.49 57.49 53.86 55.70 54.77 54.82 C 61.67 47.53 69.19 40.29 72.79 30.69 C 77.91 29.43 82.86 27.58 87.93 26.23 C 90.55 26.01 90.10 29.38 89.75 31.07 C 87.03 45.77 76.03 56.80 66.01 67.08 C 65.28 68.09 63.17 69.14 64.41 70.56 C 70.87 78.88 76.47 88.47 77.19 99.21 C 77.48 100.56 76.65 102.40 75.04 102.20 C 70.41 102.15 65.69 102.67 61.11 101.88 C 60.13 99.85 60.10 97.53 59.49 95.39 C 58.06 90.15 54.94 85.58 51.66 81.33 C 43.05 70.68 32.32 61.93 24.08 50.96 C 19.67 45.02 16.01 38.30 14.78 30.93 C 14.39 29.34 14.67 27.71 15.00 26.14 Z" />
<path fill="#003366" d=" M 43.56 33.37 C 44.47 31.83 46.68 32.77 48.14 32.57 C 52.07 33.00 56.00 32.38 59.93 32.57 C 61.90 33.14 61.26 35.28 60.56 36.58 C 58.98 39.88 56.79 42.88 54.30 45.55 C 53.39 46.67 51.54 47.05 50.56 45.80 C 47.90 43.26 45.82 40.15 44.13 36.90 C 43.77 35.82 42.66 34.47 43.56 33.37 Z" />
<path fill="#003366" d=" M 36.13 76.25 C 37.94 74.71 39.57 76.99 40.75 78.17 C 43.23 81.10 46.18 83.73 48.01 87.14 C 47.39 90.63 45.03 93.59 44.62 97.17 C 44.05 98.73 44.54 101.18 42.86 102.05 C 38.92 102.49 34.93 102.18 30.96 102.27 C 29.49 102.37 27.01 102.10 27.37 100.00 C 27.69 91.44 31.16 83.15 36.13 76.25 Z" />
</svg>
